<svg width="62" height="66" viewBox="0 0 62 66" fill="none" xmlns="http://www.w3.org/2000/svg">
<g clip-path="url(#clip0)">
<path d="M12.0091 52.7555H8.33347C6.53306 52.7501 4.75889 52.3235 3.15288 51.5098C1.54687 50.696 0.153605 49.5176 -0.915451 48.069C-0.987711 47.9708 -1.018 47.8479 -0.999643 47.7273C-0.98129 47.6068 -0.915802 47.4985 -0.817586 47.4262C-0.71937 47.3539 -0.596471 47.3236 -0.475925 47.342C-0.35538 47.3604 -0.247063 47.4258 -0.174802 47.5241C0.808528 48.8569 2.09016 49.9411 3.56757 50.69C5.04497 51.4388 6.67713 51.8315 8.33347 51.8365H12.0091C12.131 51.8365 12.2479 51.8849 12.334 51.9711C12.4202 52.0573 12.4686 52.1741 12.4686 52.296C12.4686 52.4179 12.4202 52.5347 12.334 52.6209C12.2479 52.7071 12.131 52.7555 12.0091 52.7555Z" fill="#323C6B"/>
<path d="M15.7426 52.7555H15.1113C14.9895 52.7555 14.8726 52.7071 14.7864 52.6209C14.7003 52.5347 14.6519 52.4179 14.6519 52.296C14.6519 52.1742 14.7003 52.0573 14.7864 51.9711C14.8726 51.885 14.9895 51.8366 15.1113 51.8366H15.7435C15.8654 51.8366 15.9823 51.885 16.0684 51.9711C16.1546 52.0573 16.203 52.1742 16.203 52.296C16.203 52.4179 16.1546 52.5347 16.0684 52.6209C15.9823 52.7071 15.8654 52.7555 15.7435 52.7555H15.7426Z" fill="#323C6B"/>
<path d="M62.5497 39.762C62.5517 41.0442 62.3011 42.3143 61.8122 43.4996C61.3233 44.685 60.6057 45.7624 59.7003 46.6704C58.7949 47.5783 57.7195 48.299 56.5355 48.7913C55.3515 49.2835 54.0822 49.5377 52.7999 49.5393H8.33345C6.13516 49.5393 4.02691 48.666 2.47249 47.1116C0.918066 45.5572 0.0447998 43.4489 0.0447998 41.2506C0.0447998 39.0523 0.918066 36.9441 2.47249 35.3897C4.02691 33.8352 6.13516 32.962 8.33345 32.962C8.61831 32.962 8.91237 32.9803 9.18804 33.0079C8.4053 30.8369 8.1552 28.5096 8.45875 26.2219C8.76231 23.9341 9.61066 21.7526 10.9325 19.8608C12.2543 17.969 14.011 16.4222 16.0548 15.3504C18.0987 14.2786 20.37 13.7131 22.6778 13.7014C24.9386 13.7014 27.1673 14.2368 29.1814 15.2638C31.1954 16.2908 32.9376 17.7802 34.2653 19.6101C35.8749 18.4585 37.7835 17.7979 39.7605 17.7079C39.9406 17.6894 40.1216 17.6802 40.3026 17.6804C43.0599 17.6852 45.7024 18.7846 47.6494 20.7368C49.5965 22.6891 50.6889 25.3345 50.6864 28.0917C50.6897 28.8239 50.6127 29.5542 50.4567 30.2695C51.8954 29.9141 53.3962 29.8911 54.845 30.2024C56.2939 30.5137 57.6528 31.151 58.8185 32.0661C59.9843 32.9811 60.9261 34.1497 61.5726 35.4832C62.2191 36.8167 62.5533 38.28 62.5497 39.762Z" fill="#CAFFFF"/>
<path d="M52.8 49.9987H8.33351C7.17481 50.0008 6.02723 49.7727 4.9574 49.3277C3.88758 48.8826 2.91684 48.2295 2.10153 47.4061C1.28622 46.5828 0.642592 45.6057 0.208022 44.5316C-0.226548 43.4575 -0.443403 42.3077 -0.429953 41.1491C-0.416502 39.9905 -0.173014 38.846 0.286375 37.7823C0.745763 36.7186 1.4119 35.7567 2.2461 34.9525C3.0803 34.1483 4.06595 33.5179 5.14582 33.0978C6.22568 32.6777 7.37825 32.4763 8.53659 32.5053C7.49215 29.1903 7.64686 25.6136 8.97364 22.4011C10.3004 19.1887 12.7147 16.5452 15.794 14.9334C18.8733 13.3216 22.4214 12.8441 25.8173 13.5845C29.2131 14.3249 32.2404 16.236 34.3692 18.9834C35.9722 17.9351 37.827 17.3363 39.7403 17.2494C39.9271 17.23 40.1149 17.2205 40.3027 17.2209C41.8613 17.2278 43.4003 17.5692 44.8157 18.222C46.2311 18.8748 47.4899 19.8237 48.507 21.0048C49.5241 22.1859 50.2758 23.5715 50.7114 25.068C51.1471 26.5646 51.2564 28.1372 51.032 29.6796C52.4277 29.4389 53.8581 29.4906 55.2328 29.8313C56.6075 30.172 57.8965 30.7943 59.0183 31.6589C60.1401 32.5234 61.0702 33.6114 61.7498 34.854C62.4294 36.0966 62.8437 37.4667 62.9664 38.8776C63.0892 40.2886 62.9178 41.7097 62.463 43.0509C62.0082 44.3922 61.28 45.6245 60.3244 46.6698C59.3688 47.7152 58.2067 48.5508 56.9115 49.1238C55.6163 49.6968 54.2163 49.9947 52.8 49.9987V49.9987ZM8.33351 33.4214C6.25708 33.4214 4.26569 34.2463 2.79744 35.7145C1.32918 37.1828 0.504319 39.1742 0.504319 41.2506C0.504319 43.3271 1.32918 45.3184 2.79744 46.7867C4.26569 48.255 6.25708 49.0798 8.33351 49.0798H52.8C55.2712 49.0798 57.6413 48.0981 59.3887 46.3507C61.1361 44.6032 62.1178 42.2332 62.1178 39.762C62.1178 37.2907 61.1361 34.9207 59.3887 33.1733C57.6413 31.4258 55.2712 30.4441 52.8 30.4441C52.0467 30.4465 51.2965 30.5391 50.5652 30.7198C50.4892 30.7378 50.4098 30.7364 50.3345 30.7157C50.2592 30.695 50.1903 30.6556 50.1342 30.6013C50.0784 30.5466 50.0375 30.4785 50.0153 30.4036C49.9931 30.3287 49.9904 30.2493 50.0074 30.1731C50.156 29.4906 50.2293 28.7938 50.2261 28.0954C50.2285 25.46 49.1846 22.9315 47.3237 21.0654C45.4628 19.1993 42.9372 18.1484 40.3018 18.1435C40.1367 18.1432 39.9717 18.1515 39.8074 18.1683C37.9095 18.2522 36.0765 18.8842 34.5301 19.9878C34.4315 20.0579 34.3092 20.0863 34.1899 20.0669C34.0705 20.0474 33.9635 19.9817 33.8923 19.8839C31.9098 17.1953 29.0256 15.3102 25.7673 14.5735C22.509 13.8368 19.0944 14.2977 16.148 15.872C13.2016 17.4462 10.9205 20.0285 9.72176 23.1466C8.52306 26.2647 8.48693 29.7101 9.61999 32.8526C9.6467 32.9257 9.65439 33.0044 9.64235 33.0813C9.63032 33.1582 9.59895 33.2308 9.55119 33.2922C9.50342 33.3537 9.44083 33.402 9.36929 33.4326C9.29774 33.4633 9.21959 33.4752 9.14216 33.4674C8.88486 33.4389 8.60275 33.4214 8.33351 33.4214Z" fill="#323C6B"/>
<path d="M6.4956 34.7998C6.78046 34.7998 7.07452 34.8182 7.35019 34.8457C7.14982 34.2746 6.98532 33.6915 6.85765 33.0998C4.76459 33.4818 2.89976 34.657 1.65198 36.3803C3.05801 35.3531 4.75429 34.7996 6.4956 34.7998Z" fill="#ACC6CC"/>
<path d="M52.7999 29.9847C52.0102 29.9854 51.2235 30.081 50.4566 30.2695C50.6126 29.5542 50.6896 28.8239 50.6863 28.0917C50.6888 25.3345 49.5964 22.6891 47.6494 20.7368C45.7023 18.7846 43.0598 17.6852 40.3026 17.6803C40.1215 17.6802 39.9405 17.6894 39.7604 17.7079C37.7834 17.7979 35.8748 18.4585 34.2653 19.6101C32.9865 17.8464 31.3219 16.398 29.3983 15.3754C27.4748 14.3529 25.3431 13.7831 23.1658 13.7096C20.9886 13.6362 18.8233 14.0609 16.8352 14.9514C14.8471 15.842 13.0886 17.1748 11.6938 18.8483C13.1998 17.5953 14.9471 16.665 16.8273 16.115C18.7076 15.5649 20.6807 15.4068 22.6245 15.6506C24.5684 15.8943 26.4414 16.5346 28.1277 17.5318C29.8139 18.529 31.2774 19.8619 32.4274 21.4479C34.0369 20.2964 35.9456 19.6357 37.9226 19.5457C38.1027 19.5272 38.2836 19.518 38.4647 19.5182C41.2219 19.5231 43.8645 20.6224 45.8115 22.5746C47.7586 24.5269 48.8509 27.1723 48.8485 29.9295C48.8518 30.6617 48.7748 31.392 48.6188 32.1074C50.0575 31.7519 51.5582 31.7289 53.0071 32.0402C54.456 32.3515 55.8149 32.9889 56.9806 33.9039C58.1463 34.8189 59.0882 35.9876 59.7347 37.3211C60.3812 38.6546 60.7154 40.1178 60.7117 41.5998C60.7128 43.746 60.0051 45.8325 58.6984 47.5351C60.3242 46.2972 61.5212 44.5808 62.121 42.6273C62.7208 40.6738 62.6933 38.5815 62.0423 36.6444C61.3914 34.7074 60.1496 33.0231 58.4918 31.8284C56.834 30.6336 54.8433 29.9885 52.7999 29.9837V29.9847Z" fill="#7DF6FF"/>
<path d="M52.8 49.9987H8.33351C7.17481 50.0008 6.02723 49.7727 4.9574 49.3277C3.88758 48.8826 2.91684 48.2295 2.10153 47.4061C1.28622 46.5828 0.642592 45.6057 0.208022 44.5316C-0.226548 43.4575 -0.443403 42.3077 -0.429953 41.1491C-0.416502 39.9905 -0.173014 38.846 0.286375 37.7823C0.745763 36.7186 1.4119 35.7567 2.2461 34.9525C3.0803 34.1483 4.06595 33.5179 5.14582 33.0978C6.22568 32.6777 7.37825 32.4763 8.53659 32.5053C7.49215 29.1903 7.64686 25.6136 8.97364 22.4011C10.3004 19.1887 12.7147 16.5452 15.794 14.9334C18.8733 13.3216 22.4214 12.8441 25.8173 13.5845C29.2131 14.3249 32.2404 16.236 34.3692 18.9834C35.9722 17.9351 37.827 17.3363 39.7403 17.2494C39.9271 17.23 40.1149 17.2205 40.3027 17.2209C41.8613 17.2278 43.4003 17.5692 44.8157 18.222C46.2311 18.8748 47.4899 19.8237 48.507 21.0048C49.5241 22.1859 50.2758 23.5715 50.7114 25.068C51.1471 26.5646 51.2564 28.1372 51.032 29.6796C52.4277 29.4389 53.8581 29.4906 55.2328 29.8313C56.6075 30.172 57.8965 30.7943 59.0183 31.6589C60.1401 32.5234 61.0702 33.6114 61.7498 34.854C62.4294 36.0966 62.8437 37.4667 62.9664 38.8776C63.0892 40.2886 62.9178 41.7097 62.463 43.0509C62.0082 44.3922 61.28 45.6245 60.3244 46.6698C59.3688 47.7152 58.2067 48.5508 56.9115 49.1238C55.6163 49.6968 54.2163 49.9947 52.8 49.9987V49.9987ZM8.33351 33.4214C6.25708 33.4214 4.26569 34.2463 2.79744 35.7145C1.32918 37.1828 0.504319 39.1742 0.504319 41.2506C0.504319 43.3271 1.32918 45.3184 2.79744 46.7867C4.26569 48.255 6.25708 49.0798 8.33351 49.0798H52.8C55.2712 49.0798 57.6413 48.0981 59.3887 46.3507C61.1361 44.6032 62.1178 42.2332 62.1178 39.762C62.1178 37.2907 61.1361 34.9207 59.3887 33.1733C57.6413 31.4258 55.2712 30.4441 52.8 30.4441C52.0467 30.4465 51.2965 30.5391 50.5652 30.7198C50.4892 30.7378 50.4098 30.7364 50.3345 30.7157C50.2592 30.695 50.1903 30.6556 50.1342 30.6013C50.0784 30.5466 50.0375 30.4785 50.0153 30.4036C49.9931 30.3287 49.9904 30.2493 50.0074 30.1731C50.156 29.4906 50.2293 28.7938 50.2261 28.0954C50.2285 25.46 49.1846 22.9315 47.3237 21.0654C45.4628 19.1993 42.9372 18.1484 40.3018 18.1435C40.1367 18.1432 39.9717 18.1515 39.8074 18.1683C37.9095 18.2522 36.0765 18.8842 34.5301 19.9878C34.4315 20.0579 34.3092 20.0863 34.1899 20.0669C34.0705 20.0474 33.9635 19.9817 33.8923 19.8839C31.9098 17.1953 29.0256 15.3102 25.7673 14.5735C22.509 13.8368 19.0944 14.2977 16.148 15.872C13.2016 17.4462 10.9205 20.0285 9.72176 23.1466C8.52306 26.2647 8.48693 29.7101 9.61999 32.8526C9.6467 32.9257 9.65439 33.0044 9.64235 33.0813C9.63032 33.1582 9.59895 33.2308 9.55119 33.2922C9.50342 33.3537 9.44083 33.402 9.36929 33.4326C9.29774 33.4633 9.21959 33.4752 9.14216 33.4674C8.88486 33.4389 8.60275 33.4214 8.33351 33.4214Z" fill="#323C6B"/>
<path d="M17.6899 17.5434C17.678 17.525 17.666 17.5076 17.6522 17.4901C17.5862 17.4039 17.5038 17.3315 17.4098 17.2771C17.3157 17.2227 17.2119 17.1874 17.1042 17.1732C16.9965 17.1589 16.8871 17.166 16.7821 17.1941C16.6772 17.2221 16.5788 17.2706 16.4926 17.3367C16.2627 17.4935 16.0507 17.675 15.8604 17.8779C15.7019 18.0296 15.6103 18.238 15.6055 18.4573C15.6008 18.6766 15.6834 18.8888 15.8351 19.0472C15.9868 19.2056 16.1952 19.2973 16.4145 19.302C16.6338 19.3068 16.846 19.2242 17.0044 19.0725C17.1513 18.9116 17.3177 18.7696 17.4997 18.6498C17.6648 18.5231 17.776 18.3389 17.8113 18.1338C17.8465 17.9288 17.8032 17.7179 17.6899 17.5434V17.5434Z" fill="#EEEFEE"/>
<path d="M15.104 20.3682C15.0377 20.2519 14.9441 20.1534 14.8313 20.0812C14.7185 20.0091 14.5899 19.9654 14.4565 19.9539C14.3231 19.9424 14.1889 19.9635 14.0654 20.0153C13.9419 20.0672 13.8329 20.1482 13.7477 20.2515C12.6487 21.6519 11.8619 23.2711 11.4398 25.0005C11.0178 26.7299 10.9703 28.5295 11.3006 30.2787C11.2962 30.4981 11.3791 30.7102 11.5311 30.8684C11.6831 31.0266 11.8917 31.1179 12.1111 31.1223C12.3304 31.1267 12.5425 31.0438 12.7007 30.8918C12.8589 30.7398 12.9503 30.5312 12.9547 30.3118C12.6211 28.7508 12.6334 27.1358 12.9906 25.58C13.3478 24.0243 14.0412 22.5656 15.0222 21.3064C15.1297 21.1769 15.1951 21.0177 15.2097 20.8501C15.2243 20.6824 15.1875 20.5143 15.104 20.3682V20.3682Z" fill="#EEEFEE"/>
</g>
<defs>
<clipPath id="clip0">
<rect width="62" height="66" fill="white"/>
</clipPath>
</defs>
</svg>
