<svg width="68" height="68" viewBox="0 0 68 68" fill="none" xmlns="http://www.w3.org/2000/svg">
<g clip-path="url(#clip0)">
<path d="M40.0735 23.654V23.6668C40.0664 32.1117 33.2191 38.9548 24.7742 38.9548C20.4235 38.9548 16.496 37.1393 13.7114 34.2237C11.0865 31.4762 9.47327 27.754 9.47327 23.654C9.47327 15.2035 16.3235 8.35326 24.7741 8.35326C33.2232 8.35326 40.0735 15.2035 40.0735 23.654Z" fill="#FEC007"/>
<path d="M40.0734 23.6669C40.0662 32.1118 33.2189 38.9549 24.774 38.9549C20.4234 38.9549 16.4958 37.1394 13.7113 34.2238C13.7141 34.221 13.7185 34.2195 13.7213 34.2181C13.717 34.0741 13.7156 33.9316 13.7156 33.7891C13.7156 25.4496 20.5003 18.6649 28.8397 18.6649C32.2698 18.6649 35.6287 19.8448 38.2993 21.9882C38.9376 22.4998 39.5304 23.0613 40.0734 23.6669Z" fill="#FF9300"/>
<path d="M36.5307 23.654C36.5307 30.148 31.2666 35.4122 24.774 35.4122C20.2965 35.4122 16.4047 32.9097 14.4196 29.2274C13.5232 27.5687 13.0159 25.6719 13.0159 23.654C13.0159 17.1615 18.28 11.8973 24.774 11.8973C30.1849 11.8973 34.7423 15.5526 36.1104 20.529C36.384 21.5236 36.5307 22.5724 36.5307 23.654Z" fill="#FF9300"/>
<path d="M36.5307 23.654C36.5307 30.148 31.2665 35.4122 24.774 35.4122C20.2965 35.4122 16.4047 32.9097 14.4196 29.2274C16.3576 23.1096 22.0892 18.6649 28.8397 18.6649C31.3862 18.6649 33.8944 19.3161 36.1104 20.5289C36.3839 21.5236 36.5307 22.5724 36.5307 23.654Z" fill="#FF7400"/>
<path d="M24.7733 4.98419C24.2231 4.98419 23.7772 4.5382 23.7772 3.98809V0.996094C23.7772 0.445984 24.2231 0 24.7733 0C25.3236 0 25.7694 0.445984 25.7694 0.996094V3.98809C25.7694 4.5382 25.3236 4.98419 24.7733 4.98419Z" fill="#FEC007"/>
<path d="M41.7496 14.7205C41.4073 14.7205 41.0742 14.544 40.8889 14.2273C40.6111 13.7523 40.7709 13.1423 41.2458 12.8645L43.8284 11.3537C44.3033 11.0759 44.9133 11.2358 45.1911 11.7106C45.469 12.1855 45.3092 12.7955 44.8343 13.0734L42.2516 14.5841C42.0934 14.6766 41.9204 14.7205 41.7496 14.7205Z" fill="#FEC007"/>
<path d="M5.21637 36.0917C4.87411 36.0917 4.54102 35.9152 4.35575 35.5984C4.0779 35.1235 4.23767 34.5135 4.71261 34.2356L7.29515 32.7249C7.77009 32.447 8.37996 32.6069 8.65794 33.0818C8.93578 33.5567 8.77601 34.1667 8.30107 34.4445L5.71853 35.9553C5.56035 36.0476 5.38717 36.0917 5.21637 36.0917Z" fill="#FEC007"/>
<path d="M34.6073 7.62011C34.4383 7.62011 34.2669 7.57708 34.11 7.48636C33.6336 7.21131 33.4705 6.6021 33.7456 6.1257L35.2418 3.53479C35.5169 3.0584 36.1258 2.89504 36.6026 3.17036C37.079 3.44541 37.2421 4.05462 36.9671 4.53102L35.4708 7.12193C35.2863 7.44147 34.9515 7.62011 34.6073 7.62011Z" fill="#FEC007"/>
<path d="M47.4318 24.6505H44.4398C43.8896 24.6505 43.4437 24.2045 43.4437 23.6544C43.4437 23.1043 43.8896 22.6583 44.4398 22.6583H47.4318C47.9821 22.6583 48.4279 23.1043 48.4279 23.6544C48.4279 24.2045 47.9819 24.6505 47.4318 24.6505Z" fill="#FEC007"/>
<path d="M5.10699 24.6505H2.11499C1.56475 24.6505 1.1189 24.2045 1.1189 23.6544C1.1189 23.1043 1.56475 22.6583 2.11499 22.6583H5.10699C5.65723 22.6583 6.10308 23.1043 6.10308 23.6544C6.10308 24.2045 5.65723 24.6505 5.10699 24.6505Z" fill="#FEC007"/>
<path d="M14.8441 7.67549C14.5018 7.67549 14.1687 7.49898 13.9834 7.18222L12.4726 4.59968C12.1947 4.12488 12.3545 3.51474 12.8294 3.2369C13.3042 2.95905 13.9144 3.11896 14.1922 3.59376L15.703 6.1763C15.9808 6.65111 15.821 7.26125 15.3461 7.53909C15.1879 7.6314 15.0149 7.67549 14.8441 7.67549Z" fill="#FEC007"/>
<path d="M7.74177 14.8159C7.57283 14.8159 7.40137 14.7729 7.24452 14.6823L4.65348 13.186C4.17708 12.9108 4.01399 12.3016 4.28904 11.8252C4.5641 11.3488 5.17304 11.1855 5.64984 11.4606L8.24088 12.9569C8.71728 13.2321 8.88037 13.8413 8.60532 14.3177C8.42071 14.6371 8.08602 14.8159 7.74177 14.8159Z" fill="#FEC007"/>
<path d="M64.7248 52.113H6.84644C6.84644 49.3013 8.54776 46.8881 10.9756 45.8442C10.9742 45.8402 10.9729 45.8349 10.9716 45.8309C10.7405 45.208 10.5904 44.548 10.532 43.8613C10.5134 43.6475 10.5041 43.4323 10.5041 43.2132C10.5041 39.6419 12.9797 36.6523 16.3067 35.858C16.1964 35.1847 16.138 34.4927 16.138 33.7888C16.138 26.7737 21.8237 21.0866 28.8389 21.0866C34.5033 21.0866 39.3032 24.7947 40.9394 29.9173C41.0403 30.2321 41.1293 30.5522 41.205 30.8762C41.5171 30.7673 41.8346 30.673 42.1599 30.5947C42.9369 30.4048 43.7484 30.3025 44.5838 30.3025C50.2376 30.3025 54.821 34.8858 54.821 40.5397C54.821 41.0298 54.7851 41.5119 54.7174 41.982C54.6709 42.3141 54.6085 42.6394 54.5301 42.9595C54.8515 42.8905 55.1796 42.8373 55.5129 42.8015C55.8436 42.7656 56.1783 42.747 56.5183 42.747C61.2743 42.747 65.2029 46.2918 65.8046 50.8845C65.8909 51.5352 65.3822 52.113 64.7248 52.113Z" fill="#CAFFFF"/>
<path d="M65.8845 52.1131H64.1226C63.4084 47.6489 59.5395 44.2375 54.8756 44.2375C54.1931 44.2375 53.5283 44.3133 52.8874 44.451C53.0758 43.675 53.1768 42.8649 53.1768 42.0307C53.1768 36.3771 48.5939 31.794 42.9402 31.794C41.7559 31.794 40.6195 31.9975 39.5617 32.3679C38.2447 26.7572 33.2091 22.5787 27.1954 22.5787C24.3098 22.5787 21.6493 23.5405 19.517 25.1621C21.8363 22.6557 25.1541 21.0872 28.8385 21.0872C34.8523 21.0872 39.8879 25.2657 41.2049 30.8764C42.2627 30.5061 43.399 30.3025 44.5833 30.3025C50.2369 30.3025 54.82 34.8855 54.82 40.5392C54.82 41.3734 54.7189 42.1835 54.5306 42.9596C55.1714 42.8218 55.8363 42.746 56.5188 42.746C61.6908 42.746 65.8845 46.9398 65.8845 52.1131Z" fill="#7DF6FF"/>
<path d="M20.6403 47.5376C20.4451 47.7514 20.1768 47.859 19.9086 47.859C19.6668 47.859 19.4251 47.7714 19.2339 47.596C15.3982 44.0619 11.6941 45.4976 10.9716 45.831C10.7405 45.2081 10.5904 44.548 10.532 43.8614C11.1217 43.6356 12.0912 43.346 13.2945 43.2863C15.1127 43.1946 17.8513 43.613 20.5832 46.1298C20.9883 46.503 21.0136 47.1325 20.6403 47.5376Z" fill="#7DF6FF"/>
<path d="M41.6128 31.7847C41.5637 31.8073 37.7692 33.5631 36.89 36.8568C36.7705 37.3031 36.3681 37.5966 35.9284 37.5966C35.8434 37.5966 35.7558 37.586 35.6708 37.5621C35.1382 37.4213 34.8234 36.8754 34.9642 36.3428C36.0931 32.1167 40.6061 30.0528 40.7973 29.9678C40.8438 29.9466 40.8916 29.9306 40.9395 29.9174C41.0404 30.2321 41.1294 30.5522 41.2051 30.8763C41.5172 30.7674 41.8346 30.6731 42.16 30.5947C42.2995 31.0649 42.0737 31.5788 41.6128 31.7847Z" fill="#7DF6FF"/>
<path d="M54.8502 43.9038C54.821 43.9131 52.0691 44.8787 50.9295 47.2879C50.7595 47.6478 50.4023 47.859 50.0291 47.859C49.887 47.859 49.7409 47.8284 49.6041 47.7634C49.106 47.5283 48.8935 46.9346 49.1286 46.4366C50.6387 43.2464 54.0679 42.0644 54.2127 42.0152C54.3814 41.9595 54.554 41.9502 54.7174 41.982C54.6709 42.3141 54.6085 42.6395 54.5301 42.9595C54.8515 42.8905 55.1796 42.8373 55.5129 42.8015C55.5899 43.2743 55.3177 43.7445 54.8502 43.9038Z" fill="#7DF6FF"/>
<path d="M65.8849 58.4723H6.84607C6.29583 58.4723 5.84998 58.0263 5.84998 57.4762C5.84998 56.9261 6.29583 56.4801 6.84607 56.4801H65.8849C66.4352 56.4801 66.881 56.9261 66.881 57.4762C66.881 58.0263 66.4352 58.4723 65.8849 58.4723Z" fill="#2CD7FF"/>
<path d="M60.6422 63.2362H12.0889C11.5386 63.2362 11.0928 62.7902 11.0928 62.2401C11.0928 61.69 11.5386 61.244 12.0889 61.244H60.6422C61.1924 61.244 61.6383 61.69 61.6383 62.2401C61.6383 62.7902 61.1923 63.2362 60.6422 63.2362Z" fill="#2CD7FF"/>
<path d="M50.0297 68H22.7014C22.1512 68 21.7053 67.554 21.7053 67.0039C21.7053 66.4538 22.1512 66.0078 22.7014 66.0078H50.0298C50.5801 66.0078 51.0259 66.4538 51.0259 67.0039C51.0259 67.554 50.5799 68 50.0297 68Z" fill="#2CD7FF"/>
<path d="M33.6244 32.7315C33.0741 32.7315 32.6283 32.2855 32.6283 31.7354V31.6258C32.6283 31.0757 33.0741 30.6297 33.6244 30.6297C34.1746 30.6297 34.6205 31.0757 34.6205 31.6258V31.7354C34.6205 32.2855 34.1745 32.7315 33.6244 32.7315Z" fill="#7DF6FF"/>
<path d="M29.632 35.9375C29.0817 35.9375 28.6359 35.4915 28.6359 34.9414V34.8318C28.6359 34.2817 29.0817 33.8357 29.632 33.8357C30.1822 33.8357 30.6281 34.2817 30.6281 34.8318V34.9414C30.6281 35.4915 30.1822 35.9375 29.632 35.9375Z" fill="#7DF6FF"/>
<path d="M49.7869 42.9719C49.2366 42.9719 48.7908 42.5259 48.7908 41.9758V41.8662C48.7908 41.3161 49.2366 40.8701 49.7869 40.8701C50.3371 40.8701 50.783 41.3161 50.783 41.8662V41.9758C50.783 42.5259 50.3371 42.9719 49.7869 42.9719Z" fill="#7DF6FF"/>
</g>
<defs>
<clipPath id="clip0">
<rect width="68" height="68" fill="white"/>
</clipPath>
</defs>
</svg>
