<svg width="68" height="68" viewBox="0 0 68 68" fill="none" xmlns="http://www.w3.org/2000/svg">
<path d="M43.8367 12.2162C43.4811 11.8832 43.2353 11.4516 43.1376 10.9743C42.0018 5.42604 37.0934 1.25229 31.2093 1.25229C29.4934 1.25229 27.8605 1.60756 26.3797 2.24825C25.911 2.45105 25.3732 2.41771 24.9435 2.14173C23.5353 1.23728 21.8609 0.711609 20.0629 0.711609C15.5299 0.711609 11.7764 4.0444 11.1164 8.39307C11.0333 8.94092 10.599 9.36499 10.0487 9.42954C4.78208 10.0476 0.695312 14.5229 0.695312 19.9556C0.695312 21.195 1.70004 22.1996 2.93931 22.1996H44.951C46.1904 22.1996 47.195 21.1948 47.195 19.9556C47.195 16.9017 45.903 14.1506 43.8367 12.2162Z" fill="#7DF6FF"/>
<path d="M63.0889 24.6015C62.5688 24.1146 62.2094 23.4832 62.0665 22.7853C60.4055 14.6716 53.2276 8.56799 44.6229 8.56799C42.1136 8.56799 39.7256 9.08756 37.5604 10.0244C36.8749 10.321 36.0884 10.2721 35.4599 9.86862C33.4006 8.54608 30.952 7.77723 28.3227 7.77723C21.6938 7.77723 16.2048 12.6509 15.2397 19.0104C15.1182 19.8115 14.483 20.4317 13.6783 20.5261C5.97642 21.4301 0 27.9747 0 35.9192C0 37.7316 1.46917 39.2009 3.28166 39.2009H64.7183C66.5307 39.2009 68 37.7316 68 35.9192C67.9999 31.4535 66.1105 27.4304 63.0889 24.6015Z" fill="#B9E8EF"/>
<path d="M27.5956 7.79901C21.296 8.14034 16.1691 12.8852 15.2395 19.0105C15.118 19.8116 14.4829 20.4319 13.6782 20.5263C5.97642 21.4301 0 27.9747 0 35.9192C0 37.7316 1.46917 39.2009 3.28166 39.2009H34.6171C20.3758 34.0383 21.5068 13.1923 27.5956 7.79901Z" fill="#ABDFEB"/>
<path d="M19.547 31.5878C19.011 31.5878 18.5685 31.1616 18.552 30.6221C18.4735 28.053 20.0445 25.736 22.4613 24.8562C24.4169 24.1446 26.635 24.5193 28.2503 25.8343C28.6769 26.1816 28.7414 26.809 28.3939 27.2356C28.0466 27.6622 27.4192 27.7266 26.9926 27.3791C25.9018 26.4912 24.4625 26.2478 23.1427 26.7282C21.5356 27.3131 20.4911 28.8535 20.5433 30.5612C20.56 31.111 20.128 31.5704 19.578 31.5873C19.5678 31.5877 19.5574 31.5878 19.547 31.5878Z" fill="#8BCDD8"/>
<path d="M54.1666 29.4738C54.0598 29.4738 53.9512 29.4566 53.8444 29.4201C53.3238 29.2422 53.046 28.6759 53.2239 28.1553C53.8278 26.3878 53.3833 24.4701 52.0635 23.1504C50.6512 21.7381 48.5527 21.3339 46.7174 22.1212C46.2119 22.338 45.6262 22.1041 45.4093 21.5983C45.1926 21.0927 45.4266 20.5072 45.9322 20.2903C48.5209 19.1802 51.4805 19.75 53.4722 21.7418C55.3336 23.603 55.9607 26.3073 55.1092 28.7996C54.9676 29.2134 54.5808 29.4738 54.1666 29.4738Z" fill="#8BCDD8"/>
<path d="M27.7369 17.5486C27.6393 17.5486 27.5402 17.5343 27.4421 17.5039C26.9165 17.3412 26.6224 16.7834 26.7851 16.2578C27.252 14.7491 28.6274 13.7355 30.2078 13.7355C31.6506 13.7355 32.9463 14.5942 33.5084 15.9233C33.7226 16.43 33.4857 17.0143 32.979 17.2287C32.4726 17.4429 31.888 17.206 31.6736 16.6993C31.424 16.1091 30.8486 15.7276 30.2078 15.7276C29.506 15.7276 28.8953 16.1773 28.6881 16.8468C28.556 17.2742 28.162 17.5486 27.7369 17.5486Z" fill="#8BCDD8"/>
<path d="M12.1834 49.0709C12.0702 49.0709 11.9552 49.0515 11.8428 49.0106C11.3258 48.8224 11.0594 48.2508 11.2474 47.7339L13.0858 42.6831C13.274 42.166 13.8455 41.8997 14.3626 42.0877C14.8795 42.2759 15.146 42.8475 14.9578 43.3644L13.1194 48.4154C12.9723 48.8197 12.5903 49.0709 12.1834 49.0709Z" fill="#8BCDD8"/>
<path d="M23.1696 49.0318C23.0564 49.0318 22.9414 49.0124 22.829 48.9715C22.312 48.7833 22.0456 48.2116 22.2336 47.6947L24.072 42.6439C24.2602 42.1269 24.8319 41.8604 25.3488 42.0485C25.8657 42.2367 26.1322 42.8083 25.944 43.3252L24.1056 48.3762C23.9585 48.7805 23.5765 49.0318 23.1696 49.0318Z" fill="#8BCDD8"/>
<path d="M34.1559 48.9926C34.0428 48.9926 33.9277 48.9732 33.8154 48.9323C33.2983 48.7441 33.0319 48.1725 33.22 47.6556L35.0584 42.6046C35.2466 42.0875 35.8182 41.8208 36.3351 42.0092C36.8521 42.1974 37.1186 42.769 36.9305 43.2859L35.0921 48.3369C34.9447 48.7414 34.5627 48.9926 34.1559 48.9926Z" fill="#8BCDD8"/>
<path d="M45.1421 48.9534C45.029 48.9534 44.9139 48.934 44.8016 48.8931C44.2845 48.7049 44.0181 48.1333 44.2062 47.6164L46.0446 42.5654C46.2328 42.0484 46.8043 41.7818 47.3213 41.97C47.8383 42.1582 48.1048 42.7298 47.9167 43.2468L46.0783 48.2977C45.9309 48.7023 45.5489 48.9534 45.1421 48.9534Z" fill="#8BCDD8"/>
<path d="M56.1282 48.9141C56.015 48.9141 55.9 48.8947 55.7877 48.8538C55.2706 48.6656 55.0042 48.094 55.1923 47.5771L57.0307 42.5261C57.2188 42.009 57.7905 41.7424 58.3074 41.9307C58.8244 42.1189 59.0908 42.6905 58.9028 43.2074L57.0644 48.2584C56.9171 48.6629 56.5351 48.9141 56.1282 48.9141Z" fill="#8BCDD8"/>
<path d="M15.0077 58.1815C14.8945 58.1815 14.7795 58.1621 14.667 58.1212C14.1501 57.933 13.8836 57.3614 14.0716 56.8445L15.91 51.7935C16.0982 51.2765 16.6697 51.01 17.1868 51.1981C17.7038 51.3863 17.9702 51.9579 17.7821 52.4748L15.9438 57.5258C15.7965 57.9304 15.4145 58.1815 15.0077 58.1815Z" fill="#8BCDD8"/>
<path d="M25.9939 58.1423C25.8808 58.1423 25.7657 58.1229 25.6534 58.082C25.1363 57.8938 24.8699 57.3222 25.058 56.8053L26.8964 51.7543C27.0846 51.2373 27.6559 50.9707 28.1731 51.1589C28.69 51.3471 28.9566 51.9187 28.7685 52.4356L26.9301 57.4866C26.7827 57.8912 26.4007 58.1423 25.9939 58.1423Z" fill="#8BCDD8"/>
<path d="M36.9801 58.103C36.8669 58.103 36.7519 58.0836 36.6394 58.0427C36.1225 57.8545 35.8559 57.2829 36.0441 56.766L37.8825 51.7151C38.0707 51.1981 38.6425 50.9318 39.1592 51.1197C39.6761 51.3079 39.9427 51.8795 39.7545 52.3964L37.9161 57.4473C37.769 57.8518 37.3869 58.103 36.9801 58.103Z" fill="#8BCDD8"/>
<path d="M47.9664 58.0638C47.8532 58.0638 47.7382 58.0444 47.6257 58.0035C47.1088 57.8153 46.8423 57.2437 47.0305 56.7268L48.8688 51.6759C49.057 51.159 49.6289 50.8925 50.1456 51.0805C50.6626 51.2687 50.929 51.8404 50.741 52.3573L48.9026 57.4083C48.7553 57.8127 48.3732 58.0638 47.9664 58.0638Z" fill="#8BCDD8"/>
<path d="M18.8044 67.2884C18.6912 67.2884 18.5762 67.2691 18.4637 67.2281C17.9468 67.04 17.6803 66.4683 17.8685 65.9514L19.7069 60.9006C19.8951 60.3835 20.4669 60.1172 20.9836 60.3052C21.5006 60.4934 21.767 61.065 21.579 61.5819L19.7406 66.6329C19.5933 67.0373 19.2113 67.2884 18.8044 67.2884Z" fill="#8BCDD8"/>
<path d="M29.7906 67.2494C29.6774 67.2494 29.5624 67.23 29.4499 67.1891C28.933 67.0009 28.6665 66.4293 28.8547 65.9124L30.6931 60.8615C30.8813 60.3445 31.4529 60.0783 31.9698 60.2661C32.4868 60.4543 32.7532 61.0259 32.5652 61.5428L30.7268 66.5938C30.5795 66.9981 30.1975 67.2494 29.7906 67.2494Z" fill="#8BCDD8"/>
<path d="M40.7767 67.2102C40.6636 67.2102 40.5486 67.1908 40.4362 67.1499C39.9192 66.9617 39.6528 66.3901 39.8408 65.8732L41.6792 60.8222C41.8674 60.3051 42.4389 60.0385 42.9559 60.2268C43.4729 60.415 43.7394 60.9866 43.5513 61.5035L41.7129 66.5545C41.5655 66.959 41.1835 67.2102 40.7767 67.2102Z" fill="#8BCDD8"/>
</svg>
