<svg width="68" height="68" viewBox="0 0 68 68" fill="none" xmlns="http://www.w3.org/2000/svg">
<path d="M34 54.8484C45.5151 54.8484 54.85 45.5135 54.85 33.9984C54.85 22.4833 45.5151 13.1484 34 13.1484C22.4849 13.1484 13.15 22.4833 13.15 33.9984C13.15 45.5135 22.4849 54.8484 34 54.8484Z" fill="#FEDB41"/>
<path d="M50.6 34.9281C50.3539 34.9278 50.118 34.8299 49.944 34.656C49.77 34.482 49.6722 34.2461 49.6719 34C49.6677 29.8449 48.0152 25.8611 45.077 22.923C42.1389 19.9848 38.1551 18.3323 34 18.3281C33.7534 18.3281 33.517 18.2302 33.3426 18.0558C33.1683 17.8815 33.0703 17.645 33.0703 17.3984C33.0703 17.1519 33.1683 16.9154 33.3426 16.741C33.517 16.5667 33.7534 16.4688 34 16.4688C38.6481 16.4737 43.1043 18.3223 46.391 21.609C49.6777 24.8957 51.5263 29.3519 51.5312 34C51.5311 34.1221 51.5069 34.243 51.46 34.3557C51.4131 34.4685 51.3445 34.5709 51.258 34.6571C51.1715 34.7433 51.0689 34.8116 50.9559 34.8581C50.843 34.9046 50.7221 34.9284 50.6 34.9281V34.9281Z" fill="#FEA832"/>
<path d="M34 8.89845C35.5147 8.90023 37.026 9.0391 38.5156 9.31335C38.5358 9.02382 38.5491 8.72898 38.5491 8.43254C38.5486 4.28826 34 0.928101 34 0.928101C34 0.928101 29.4509 4.28826 29.4509 8.43254C29.4509 8.7311 29.4647 9.02382 29.4849 9.31335C30.9744 9.03911 32.4855 8.90024 34 8.89845V8.89845Z" fill="#FEA832"/>
<path d="M34 59.0984C35.5146 59.0965 37.026 58.9578 38.5156 58.684C38.5358 58.973 38.5491 59.2657 38.5491 59.5643C38.5491 63.708 34.0005 67.0687 34.0005 67.0687C34.0005 67.0687 29.4514 63.7091 29.4514 59.5643C29.4514 59.2657 29.4652 58.973 29.4854 58.684C30.9747 58.9578 32.4857 59.0965 34 59.0984V59.0984Z" fill="#FEA832"/>
<path d="M51.7486 16.2499C52.8179 17.3223 53.7882 18.489 54.6477 19.736C54.8671 19.5458 55.0833 19.3481 55.2942 19.1372C58.2251 16.2063 57.3841 10.6144 57.3841 10.6144C57.3841 10.6144 51.7922 9.77502 48.8613 12.7043C48.6488 12.9168 48.4528 13.1293 48.2626 13.3509C49.5095 14.2103 50.6762 15.1806 51.7486 16.2499V16.2499Z" fill="#FEA832"/>
<path d="M16.2515 51.7469C17.3237 52.8165 18.4905 53.7868 19.7376 54.646C19.5474 54.8654 19.3498 55.0816 19.1389 55.2925C16.208 58.2234 10.616 57.3824 10.616 57.3824C10.616 57.3824 9.77505 51.7905 12.706 48.8596C12.9185 48.6471 13.131 48.4511 13.3525 48.2609C14.2118 49.5079 15.1821 50.6747 16.2515 51.7469V51.7469Z" fill="#FEA832"/>
<path d="M59.0999 34C59.0981 35.5146 58.9594 37.026 58.6855 38.5156C58.9745 38.5358 59.2673 38.5496 59.5658 38.5496C63.7096 38.5496 67.0703 34.0005 67.0703 34.0005C67.0703 34.0005 63.7101 29.452 59.5658 29.452C59.2673 29.452 58.9745 29.4652 58.6855 29.4854C58.9593 30.9747 59.098 32.4857 59.0999 34V34Z" fill="#FEA832"/>
<path d="M8.90003 34C8.90188 35.5146 9.04057 37.026 9.31441 38.5157C9.02541 38.5358 8.73003 38.5497 8.43413 38.5497C4.28984 38.5475 0.929688 34 0.929688 34C0.929688 34 4.28984 29.4514 8.43413 29.4514C8.73269 29.4514 9.02541 29.4647 9.31441 29.4849C9.04063 30.9744 8.90194 32.4856 8.90003 34Z" fill="#FEA832"/>
<path d="M51.7486 51.7469C50.6762 52.8162 49.5095 53.7865 48.2626 54.646C48.4528 54.8654 48.6504 55.0816 48.8613 55.2925C51.7922 58.2234 57.3841 57.3824 57.3841 57.3824C57.3841 57.3824 58.2251 51.7905 55.2942 48.8596C55.0817 48.6471 54.8692 48.4511 54.6477 48.2609C53.7884 49.5079 52.8181 50.6747 51.7486 51.7469V51.7469Z" fill="#FEA832"/>
<path d="M16.2515 16.2499C15.1822 17.3223 14.2119 18.489 13.3525 19.736C13.1331 19.5458 12.9169 19.3481 12.706 19.1372C9.77505 16.2063 10.616 10.6144 10.616 10.6144C10.616 10.6144 16.208 9.77502 19.1389 12.7043C19.3514 12.9168 19.5474 13.1293 19.7376 13.3509C18.4906 14.2102 17.3238 15.1805 16.2515 16.2499V16.2499Z" fill="#FEA832"/>
</svg>
